<svg width="91" height="80" viewBox="0 0 91 80" fill="none" xmlns="http://www.w3.org/2000/svg">
<g filter="url(#filter0_d_185_402)">
<rect x="12" y="8.00012" width="67" height="55.9999" rx="12" fill="#FDEAE5"/>
</g>
<path d="M48.5757 42.7801V45.0001H38.9757V42.7801H42.4917V32.6641C42.4917 32.2641 42.5037 31.8521 42.5277 31.4281L40.0317 33.5161C39.8877 33.6281 39.7437 33.7001 39.5997 33.7321C39.4637 33.7561 39.3317 33.7561 39.2037 33.7321C39.0837 33.7081 38.9757 33.6681 38.8797 33.6121C38.7837 33.5481 38.7117 33.4801 38.6637 33.4081L37.7277 32.1241L43.0197 27.6241H45.4557V42.7801H48.5757ZM51.1096 43.3681C51.1096 43.1201 51.1536 42.8841 51.2416 42.6601C51.3376 42.4361 51.4656 42.2441 51.6256 42.0841C51.7856 41.9241 51.9776 41.7961 52.2016 41.7001C52.4256 41.6041 52.6656 41.5561 52.9216 41.5561C53.1776 41.5561 53.4136 41.6041 53.6296 41.7001C53.8536 41.7961 54.0456 41.9241 54.2056 42.0841C54.3736 42.2441 54.5056 42.4361 54.6016 42.6601C54.6976 42.8841 54.7456 43.1201 54.7456 43.3681C54.7456 43.6241 54.6976 43.8641 54.6016 44.0881C54.5056 44.3041 54.3736 44.4921 54.2056 44.6521C54.0456 44.8121 53.8536 44.9361 53.6296 45.0241C53.4136 45.1201 53.1776 45.1681 52.9216 45.1681C52.6656 45.1681 52.4256 45.1201 52.2016 45.0241C51.9776 44.9361 51.7856 44.8121 51.6256 44.6521C51.4656 44.4921 51.3376 44.3041 51.2416 44.0881C51.1536 43.8641 51.1096 43.6241 51.1096 43.3681Z" fill="#F54C1E"/>
<defs>
<filter id="filter0_d_185_402" x="0" y="0.00012207" width="91" height="79.9999" filterUnits="userSpaceOnUse" color-interpolation-filters="sRGB">
<feFlood flood-opacity="0" result="BackgroundImageFix"/>
<feColorMatrix in="SourceAlpha" type="matrix" values="0 0 0 0 0 0 0 0 0 0 0 0 0 0 0 0 0 0 127 0" result="hardAlpha"/>
<feOffset dy="4"/>
<feGaussianBlur stdDeviation="6"/>
<feComposite in2="hardAlpha" operator="out"/>
<feColorMatrix type="matrix" values="0 0 0 0 0.960784 0 0 0 0 0.298039 0 0 0 0 0.117647 0 0 0 0.25 0"/>
<feBlend mode="normal" in2="BackgroundImageFix" result="effect1_dropShadow_185_402"/>
<feBlend mode="normal" in="SourceGraphic" in2="effect1_dropShadow_185_402" result="shape"/>
</filter>
</defs>
</svg>
