<svg width="91" height="80" viewBox="0 0 91 80" fill="none" xmlns="http://www.w3.org/2000/svg">
<g filter="url(#filter0_d_185_374)">
<rect x="12" y="8.00012" width="67" height="56" rx="12" fill="#FDEAE5"/>
</g>
<path d="M47.9634 42.2401C48.2834 42.2401 48.5354 42.3321 48.7194 42.5161C48.9114 42.6921 49.0074 42.9281 49.0074 43.2241V45.0001H37.1034V44.0161C37.1034 43.8161 37.1434 43.6081 37.2234 43.3921C37.3114 43.1681 37.4474 42.9681 37.6314 42.7921L42.8994 37.5121C43.3394 37.0641 43.7314 36.6361 44.0754 36.2281C44.4274 35.8201 44.7194 35.4161 44.9514 35.0161C45.1834 34.6161 45.3594 34.2121 45.4794 33.8041C45.6074 33.3881 45.6714 32.9521 45.6714 32.4961C45.6714 32.0801 45.6114 31.7161 45.4914 31.4041C45.3714 31.0841 45.1994 30.8161 44.9754 30.6001C44.7594 30.3841 44.4954 30.2241 44.1834 30.1201C43.8794 30.0081 43.5354 29.9521 43.1514 29.9521C42.7994 29.9521 42.4714 30.0041 42.1674 30.1081C41.8714 30.2041 41.6074 30.3441 41.3754 30.5281C41.1434 30.7041 40.9474 30.9121 40.7874 31.1521C40.6274 31.3921 40.5074 31.6561 40.4274 31.9441C40.2914 32.3121 40.1154 32.5561 39.8994 32.6761C39.6834 32.7961 39.3714 32.8241 38.9634 32.7601L37.4034 32.4841C37.5234 31.6521 37.7554 30.9241 38.0994 30.3001C38.4434 29.6681 38.8714 29.1441 39.3834 28.7281C39.9034 28.3041 40.4954 27.9881 41.1594 27.7801C41.8314 27.5641 42.5514 27.4561 43.3194 27.4561C44.1194 27.4561 44.8514 27.5761 45.5154 27.8161C46.1794 28.0481 46.7474 28.3801 47.2194 28.8121C47.6914 29.2441 48.0594 29.7641 48.3234 30.3721C48.5874 30.9801 48.7194 31.6561 48.7194 32.4001C48.7194 33.0401 48.6234 33.6321 48.4314 34.1761C48.2474 34.7201 47.9954 35.2401 47.6754 35.7361C47.3634 36.2321 46.9954 36.7121 46.5714 37.1761C46.1474 37.6401 45.7034 38.1121 45.2394 38.5921L41.3274 42.5881C41.7034 42.4761 42.0754 42.3921 42.4434 42.3361C42.8194 42.2721 43.1754 42.2401 43.5114 42.2401H47.9634ZM51.1453 43.3681C51.1453 43.1201 51.1893 42.8841 51.2773 42.6601C51.3733 42.4361 51.5013 42.2441 51.6613 42.0841C51.8213 41.9241 52.0133 41.7961 52.2373 41.7001C52.4613 41.6041 52.7013 41.5561 52.9573 41.5561C53.2133 41.5561 53.4493 41.6041 53.6653 41.7001C53.8893 41.7961 54.0813 41.9241 54.2413 42.0841C54.4093 42.2441 54.5413 42.4361 54.6373 42.6601C54.7333 42.8841 54.7813 43.1201 54.7813 43.3681C54.7813 43.6241 54.7333 43.8641 54.6373 44.0881C54.5413 44.3041 54.4093 44.4921 54.2413 44.6521C54.0813 44.8121 53.8893 44.9361 53.6653 45.0241C53.4493 45.1201 53.2133 45.1681 52.9573 45.1681C52.7013 45.1681 52.4613 45.1201 52.2373 45.0241C52.0133 44.9361 51.8213 44.8121 51.6613 44.6521C51.5013 44.4921 51.3733 44.3041 51.2773 44.0881C51.1893 43.8641 51.1453 43.6241 51.1453 43.3681Z" fill="#F54C1E"/>
<defs>
<filter id="filter0_d_185_374" x="0" y="0.00012207" width="91" height="80" filterUnits="userSpaceOnUse" color-interpolation-filters="sRGB">
<feFlood flood-opacity="0" result="BackgroundImageFix"/>
<feColorMatrix in="SourceAlpha" type="matrix" values="0 0 0 0 0 0 0 0 0 0 0 0 0 0 0 0 0 0 127 0" result="hardAlpha"/>
<feOffset dy="4"/>
<feGaussianBlur stdDeviation="6"/>
<feComposite in2="hardAlpha" operator="out"/>
<feColorMatrix type="matrix" values="0 0 0 0 0.960784 0 0 0 0 0.298039 0 0 0 0 0.117647 0 0 0 0.25 0"/>
<feBlend mode="normal" in2="BackgroundImageFix" result="effect1_dropShadow_185_374"/>
<feBlend mode="normal" in="SourceGraphic" in2="effect1_dropShadow_185_374" result="shape"/>
</filter>
</defs>
</svg>
