<svg width="91" height="80" viewBox="0 0 91 80" fill="none" xmlns="http://www.w3.org/2000/svg">
<g filter="url(#filter0_d_185_395)">
<rect x="12" y="8.00012" width="67" height="56" rx="12" fill="#FDEAE5"/>
</g>
<path d="M41.0634 33.9481C41.4474 33.8681 41.8154 33.8121 42.1674 33.7801C42.5194 33.7401 42.8594 33.7201 43.1874 33.7201C44.0994 33.7201 44.9034 33.8561 45.5994 34.1281C46.2954 34.4001 46.8794 34.7761 47.3514 35.2561C47.8234 35.7361 48.1794 36.3001 48.4194 36.9481C48.6594 37.5881 48.7794 38.2801 48.7794 39.0241C48.7794 39.9441 48.6154 40.7841 48.2874 41.5441C47.9674 42.3041 47.5194 42.9561 46.9434 43.5001C46.3674 44.0361 45.6834 44.4521 44.8914 44.7481C44.1074 45.0441 43.2514 45.1921 42.3234 45.1921C41.7794 45.1921 41.2634 45.1361 40.7754 45.0241C40.2874 44.9121 39.8274 44.7641 39.3954 44.5801C38.9714 44.3881 38.5754 44.1721 38.2074 43.9321C37.8474 43.6841 37.5234 43.4241 37.2354 43.1521L38.1474 41.8921C38.3394 41.6201 38.5914 41.4841 38.9034 41.4841C39.1034 41.4841 39.3074 41.5481 39.5154 41.6761C39.7234 41.8041 39.9594 41.9441 40.2234 42.0961C40.4954 42.2481 40.8114 42.3881 41.1714 42.5161C41.5394 42.6441 41.9794 42.7081 42.4914 42.7081C43.0354 42.7081 43.5154 42.6201 43.9314 42.4441C44.3474 42.2681 44.6914 42.0241 44.9634 41.7121C45.2434 41.3921 45.4514 41.0161 45.5874 40.5841C45.7314 40.1441 45.8034 39.6681 45.8034 39.1561C45.8034 38.2121 45.5274 37.4761 44.9754 36.9481C44.4314 36.4121 43.6234 36.1441 42.5514 36.1441C41.7274 36.1441 40.8834 36.2961 40.0194 36.6001L38.1714 36.0721L39.6114 27.6481H48.1794V28.9081C48.1794 29.3321 48.0474 29.6761 47.7834 29.9401C47.5194 30.2041 47.0714 30.3361 46.4394 30.3361H41.6754L41.0634 33.9481ZM51.1453 43.3681C51.1453 43.1201 51.1893 42.8841 51.2773 42.6601C51.3733 42.4361 51.5013 42.2441 51.6613 42.0841C51.8213 41.9241 52.0133 41.7961 52.2373 41.7001C52.4613 41.6041 52.7013 41.5561 52.9573 41.5561C53.2133 41.5561 53.4493 41.6041 53.6653 41.7001C53.8893 41.7961 54.0813 41.9241 54.2413 42.0841C54.4093 42.2441 54.5413 42.4361 54.6373 42.6601C54.7333 42.8841 54.7813 43.1201 54.7813 43.3681C54.7813 43.6241 54.7333 43.8641 54.6373 44.0881C54.5413 44.3041 54.4093 44.4921 54.2413 44.6521C54.0813 44.8121 53.8893 44.9361 53.6653 45.0241C53.4493 45.1201 53.2133 45.1681 52.9573 45.1681C52.7013 45.1681 52.4613 45.1201 52.2373 45.0241C52.0133 44.9361 51.8213 44.8121 51.6613 44.6521C51.5013 44.4921 51.3733 44.3041 51.2773 44.0881C51.1893 43.8641 51.1453 43.6241 51.1453 43.3681Z" fill="#F54C1E"/>
<defs>
<filter id="filter0_d_185_395" x="0" y="0.00012207" width="91" height="80" filterUnits="userSpaceOnUse" color-interpolation-filters="sRGB">
<feFlood flood-opacity="0" result="BackgroundImageFix"/>
<feColorMatrix in="SourceAlpha" type="matrix" values="0 0 0 0 0 0 0 0 0 0 0 0 0 0 0 0 0 0 127 0" result="hardAlpha"/>
<feOffset dy="4"/>
<feGaussianBlur stdDeviation="6"/>
<feComposite in2="hardAlpha" operator="out"/>
<feColorMatrix type="matrix" values="0 0 0 0 0.960784 0 0 0 0 0.298039 0 0 0 0 0.117647 0 0 0 0.25 0"/>
<feBlend mode="normal" in2="BackgroundImageFix" result="effect1_dropShadow_185_395"/>
<feBlend mode="normal" in="SourceGraphic" in2="effect1_dropShadow_185_395" result="shape"/>
</filter>
</defs>
</svg>
