<svg width="60" height="60" viewBox="0 0 60 60" fill="none" xmlns="http://www.w3.org/2000/svg">
<rect width="60" height="60" rx="12" fill="#FEE7E1" fill-opacity="0.85098"/>
<path fill-rule="evenodd" clip-rule="evenodd" d="M28.565 45.3932C28.9416 45.7811 29.4592 46 29.9999 46H30.0174C30.5479 46 31.0566 45.7893 31.4317 45.4142L34.3584 42.4875C34.7334 42.1124 35.2422 41.9017 35.7726 41.9017H39.8343C40.3647 41.9017 40.8734 41.691 41.2485 41.3159L41.2683 41.2961C41.6433 40.9211 41.8541 40.4124 41.8541 39.8819V35.7794C41.8541 35.2449 42.068 34.7327 42.448 34.357L45.406 31.433C45.7861 31.0573 46 30.5451 46 30.0107V29.9791C46 29.4507 45.7909 28.9438 45.4183 28.5691L42.5072 25.6409C42.1347 25.2662 41.9255 24.7592 41.9255 24.2308V20.0823C41.9255 19.5448 41.7052 19.0261 41.3213 18.6499V18.6499C40.9475 18.2835 40.441 18.0745 39.9176 18.0745H35.7692C35.2408 18.0745 34.7338 17.8653 34.3591 17.4928L31.4309 14.5817C31.0562 14.2091 30.5493 14 30.0209 14H29.9965C29.4578 14 28.942 14.2173 28.5656 14.6026L25.7635 17.4718C25.3872 17.8572 24.8713 18.0745 24.3327 18.0745H20.0842C19.5739 18.0745 19.0829 18.2695 18.7117 18.6197L18.6544 18.6738C18.2538 19.0516 18.0268 19.5779 18.0268 20.1286V24.2377C18.0268 24.762 17.8209 25.2654 17.4534 25.6394L14.5734 28.5706C14.2059 28.9446 14 29.4479 14 29.9723V30.0277C14 30.5521 14.2059 31.0554 14.5734 31.4294L17.4534 34.3606C17.8209 34.7346 18.0268 35.238 18.0268 35.7623V39.8476C18.0268 40.3982 18.2538 40.9245 18.6544 41.3024L18.7117 41.3565C19.0829 41.7067 19.5739 41.9017 20.0842 41.9017H24.3292C24.8699 41.9017 25.3875 42.1206 25.7641 42.5085L28.565 45.3932ZM25.9059 39.655C25.6748 39.5651 25.429 39.519 25.181 39.519H22.4095C21.305 39.519 20.4095 38.6236 20.4095 37.519V34.7771C20.4095 34.5564 20.373 34.3372 20.3014 34.1285L20.2727 34.0446C20.1746 33.7585 20.0128 33.4983 19.7997 33.2837L17.9166 31.3882C17.1454 30.6119 17.1412 29.3601 17.9071 28.5787L19.7898 26.6578C19.9632 26.4809 20.1022 26.2734 20.1998 26.0457L20.2478 25.9335C20.3545 25.6846 20.4095 25.4166 20.4095 25.1457V22.4572C20.4095 21.3526 21.305 20.4572 22.4095 20.4572H25.181C25.429 20.4572 25.6748 20.4111 25.9059 20.3212L26.0123 20.2798C26.2771 20.1769 26.5169 20.0187 26.7157 19.8158L28.5402 17.9543C29.3135 17.1653 30.58 17.1528 31.3688 17.9262L33.324 19.8434C33.5127 20.0284 33.7361 20.1741 33.9815 20.2723L34.0862 20.3141C34.3224 20.4086 34.5745 20.4572 34.8289 20.4572H37.4713C38.5759 20.4572 39.4713 21.3526 39.4713 22.4572V25.0962C39.4713 25.3989 39.5401 25.6977 39.6723 25.97L39.728 26.0846C39.8262 26.2869 39.9579 26.4711 40.1174 26.6296L42.0606 28.56C42.8515 29.3457 42.8473 30.6263 42.0514 31.4068L40.1053 33.3153C39.9072 33.5095 39.7517 33.7429 39.6487 34.0004L39.6144 34.0862C39.5199 34.3224 39.4713 34.5745 39.4713 34.8289V37.519C39.4713 38.6236 38.5759 39.519 37.4713 39.519H34.8242C34.5729 39.519 34.3237 39.5664 34.0899 39.6587L33.9246 39.7239C33.6698 39.8245 33.4384 39.9763 33.2447 40.17L31.3736 42.0411C30.5852 42.8295 29.3043 42.821 28.5265 42.0221L26.7171 40.1639C26.5174 39.9587 26.2759 39.7989 26.0091 39.6951L25.9059 39.655ZM26.3286 35.3115C26.7037 35.6865 27.2124 35.8972 27.7428 35.8972H27.7777C28.3081 35.8972 28.8168 35.6865 29.1919 35.3115L36.7437 27.7596C37.2105 27.2928 37.2105 26.5359 36.7437 26.0691V26.0691C36.2764 25.6018 35.5186 25.6024 35.052 26.0704L29.1864 31.9532C28.4057 32.7362 27.1377 32.7371 26.3559 31.9553L25.3299 30.9293C24.8627 30.4621 24.1053 30.4621 23.6381 30.9293V30.9293C23.171 31.3964 23.171 32.1538 23.6381 32.621L26.3286 35.3115Z" fill="#F54C1E"/>
</svg>
