<svg width="60" height="60" viewBox="0 0 60 60" fill="none" xmlns="http://www.w3.org/2000/svg">
<rect width="60" height="60" rx="12" fill="#FEE7E1" fill-opacity="0.85098"/>
<path d="M43.5 22.5V37.5C43.5 42 41.25 45 36 45H24C18.75 45 16.5 42 16.5 37.5V22.5C16.5 18 18.75 15 24 15H36C41.25 15 43.5 18 43.5 22.5Z" stroke="#F54C1E" stroke-width="2.5" stroke-miterlimit="10" stroke-linecap="round" stroke-linejoin="round"/>
<path d="M35.25 15V26.79C35.25 27.45 34.47 27.78 33.99 27.345L30.51 24.135C30.225 23.865 29.775 23.865 29.49 24.135L26.01 27.345C25.53 27.78 24.75 27.45 24.75 26.79V15H35.25Z" stroke="#F54C1E" stroke-width="2.5" stroke-miterlimit="10" stroke-linecap="round" stroke-linejoin="round"/>
<path d="M31.875 33H38.25" stroke="#F54C1E" stroke-width="1.5" stroke-miterlimit="10" stroke-linecap="round" stroke-linejoin="round"/>
<path d="M25.5 39H38.25" stroke="#F54C1E" stroke-width="1.5" stroke-miterlimit="10" stroke-linecap="round" stroke-linejoin="round"/>
</svg>
