<svg width="40" height="29" viewBox="0 0 40 29" fill="none" xmlns="http://www.w3.org/2000/svg">
<g clip-path="url(#clip0_140_482)">
<path d="M38.9661 5.13773C38.7376 4.29362 38.2918 3.52407 37.6731 2.90571C37.0544 2.28735 36.2844 1.84176 35.4398 1.61331C32.3476 0.770508 19.9029 0.770508 19.9029 0.770508C19.9029 0.770508 7.45749 0.796019 4.36536 1.63882C3.52073 1.86728 2.75073 2.3129 2.13202 2.93128C1.51332 3.54967 1.06751 4.31925 0.838978 5.1634C-0.0963168 10.6542 -0.459135 19.0209 0.86466 24.2921C1.09321 25.1362 1.53904 25.9057 2.15774 26.5241C2.77644 27.1424 3.54643 27.588 4.39105 27.8165C7.48317 28.6593 19.9282 28.6593 19.9282 28.6593C19.9282 28.6593 32.3732 28.6593 35.4651 27.8165C36.3098 27.5881 37.0798 27.1425 37.6985 26.5241C38.3173 25.9058 38.7631 25.1362 38.9917 24.2921C39.9782 18.7935 40.2822 10.4319 38.9661 5.13773Z" fill="#FF0000"/>
<path d="M15.9414 20.691L26.2653 14.7149L15.9414 8.73877V20.691Z" fill="white"/>
</g>
<defs>
<clipPath id="clip0_140_482">
<rect width="39.8462" height="28" fill="white" transform="translate(0 0.770508)"/>
</clipPath>
</defs>
</svg>
