<svg width="126" height="22" viewBox="0 0 126 22" fill="none" xmlns="http://www.w3.org/2000/svg">
<path d="M16.632 4.354H10.892V21H6.16V4.354H0.42V0.602H16.632V4.354ZM19.9948 8.722C20.4428 7.938 20.9562 7.322 21.5348 6.874C22.1228 6.426 22.7948 6.202 23.5508 6.202C24.2042 6.202 24.7362 6.356 25.1468 6.664L24.8668 9.856C24.8202 10.0613 24.7408 10.2013 24.6288 10.276C24.5262 10.3507 24.3815 10.388 24.1948 10.388C24.1202 10.388 24.0222 10.3833 23.9008 10.374C23.7795 10.3647 23.6535 10.3553 23.5228 10.346C23.3922 10.3273 23.2568 10.3133 23.1168 10.304C22.9862 10.2853 22.8648 10.276 22.7528 10.276C22.1182 10.276 21.6095 10.444 21.2268 10.78C20.8535 11.116 20.5362 11.5827 20.2748 12.18V21H15.9348V6.482H18.5108C18.7255 6.482 18.9028 6.50067 19.0428 6.538C19.1922 6.57533 19.3135 6.636 19.4068 6.72C19.5095 6.79467 19.5842 6.89733 19.6308 7.028C19.6868 7.15867 19.7335 7.31733 19.7708 7.504L19.9948 8.722ZM39.6463 6.482V21H36.9583C36.4169 21 36.0623 20.7573 35.8943 20.272L35.6423 19.432C35.3623 19.7027 35.0729 19.95 34.7743 20.174C34.4756 20.3887 34.1536 20.5753 33.8083 20.734C33.4723 20.8833 33.1036 21 32.7023 21.084C32.3103 21.1773 31.8809 21.224 31.4143 21.224C30.6209 21.224 29.9163 21.0887 29.3003 20.818C28.6936 20.538 28.1803 20.1507 27.7603 19.656C27.3403 19.1613 27.0229 18.578 26.8083 17.906C26.5936 17.234 26.4863 16.4967 26.4863 15.694V6.482H30.8263V15.694C30.8263 16.4127 30.9896 16.968 31.3163 17.36C31.6429 17.752 32.1236 17.948 32.7583 17.948C33.2343 17.948 33.6776 17.85 34.0883 17.654C34.5083 17.4487 34.9143 17.1733 35.3063 16.828V6.482H39.6463Z" fill="#F54C1E"/>
<path d="M42.501 18.824C42.501 18.4933 42.5597 18.1787 42.677 17.88C42.805 17.5813 42.9757 17.3253 43.189 17.112C43.4023 16.8987 43.6583 16.728 43.957 16.6C44.2557 16.472 44.5757 16.408 44.917 16.408C45.2583 16.408 45.573 16.472 45.861 16.6C46.1597 16.728 46.4157 16.8987 46.629 17.112C46.853 17.3253 47.029 17.5813 47.157 17.88C47.285 18.1787 47.349 18.4933 47.349 18.824C47.349 19.1653 47.285 19.4853 47.157 19.784C47.029 20.072 46.853 20.3227 46.629 20.536C46.4157 20.7493 46.1597 20.9147 45.861 21.032C45.573 21.16 45.2583 21.224 44.917 21.224C44.5757 21.224 44.2557 21.16 43.957 21.032C43.6583 20.9147 43.4023 20.7493 43.189 20.536C42.9757 20.3227 42.805 20.072 42.677 19.784C42.5597 19.4853 42.501 19.1653 42.501 18.824ZM54.7528 3.752V9.366H61.8368V12.264H54.7528V17.99H63.7408V21H50.9728V0.755999H63.7408V3.752H54.7528ZM75.1048 9.436C75.0115 9.58533 74.9135 9.69267 74.8108 9.758C74.7081 9.814 74.5775 9.842 74.4188 9.842C74.2508 9.842 74.0688 9.79533 73.8728 9.702C73.6861 9.60867 73.4668 9.506 73.2148 9.394C72.9628 9.27267 72.6735 9.16533 72.3468 9.072C72.0295 8.97867 71.6515 8.932 71.2128 8.932C70.5315 8.932 69.9948 9.07667 69.6028 9.366C69.2201 9.65533 69.0288 10.0333 69.0288 10.5C69.0288 10.808 69.1268 11.0693 69.3228 11.284C69.5281 11.4893 69.7941 11.6713 70.1208 11.83C70.4568 11.9887 70.8348 12.1333 71.2548 12.264C71.6748 12.3853 72.0995 12.5207 72.5288 12.67C72.9675 12.8193 73.3968 12.992 73.8168 13.188C74.2368 13.3747 74.6101 13.6173 74.9368 13.916C75.2728 14.2053 75.5388 14.5553 75.7348 14.966C75.9401 15.3767 76.0428 15.8713 76.0428 16.45C76.0428 17.1407 75.9168 17.78 75.6648 18.368C75.4221 18.9467 75.0581 19.4507 74.5728 19.88C74.0875 20.3 73.4855 20.6313 72.7668 20.874C72.0575 21.1073 71.2361 21.224 70.3028 21.224C69.8081 21.224 69.3228 21.1773 68.8468 21.084C68.3801 21 67.9275 20.8787 67.4888 20.72C67.0595 20.5613 66.6581 20.3747 66.2848 20.16C65.9208 19.9453 65.5988 19.712 65.3188 19.46L66.1168 18.144C66.2195 17.9853 66.3408 17.864 66.4808 17.78C66.6208 17.696 66.7981 17.654 67.0128 17.654C67.2275 17.654 67.4281 17.7147 67.6148 17.836C67.8108 17.9573 68.0348 18.088 68.2868 18.228C68.5388 18.368 68.8328 18.4987 69.1688 18.62C69.5141 18.7413 69.9481 18.802 70.4708 18.802C70.8815 18.802 71.2315 18.7553 71.5208 18.662C71.8195 18.5593 72.0621 18.4287 72.2488 18.27C72.4448 18.1113 72.5848 17.9293 72.6688 17.724C72.7621 17.5093 72.8088 17.29 72.8088 17.066C72.8088 16.73 72.7061 16.4547 72.5008 16.24C72.3048 16.0253 72.0388 15.8387 71.7028 15.68C71.3761 15.5213 70.9981 15.3813 70.5688 15.26C70.1488 15.1293 69.7148 14.9893 69.2668 14.84C68.8281 14.6907 68.3941 14.518 67.9648 14.322C67.5448 14.1167 67.1668 13.86 66.8308 13.552C66.5041 13.244 66.2381 12.866 66.0328 12.418C65.8368 11.97 65.7388 11.4287 65.7388 10.794C65.7388 10.206 65.8555 9.646 66.0888 9.114C66.3221 8.582 66.6628 8.12 67.1108 7.728C67.5681 7.32667 68.1328 7.00933 68.8048 6.776C69.4861 6.53333 70.2701 6.412 71.1568 6.412C72.1461 6.412 73.0468 6.57533 73.8588 6.902C74.6708 7.22867 75.3475 7.658 75.8888 8.19L75.1048 9.436ZM83.4335 21.224C82.1828 21.224 81.2215 20.874 80.5495 20.174C79.8868 19.4647 79.5555 18.4893 79.5555 17.248V9.226H78.0855C77.8988 9.226 77.7402 9.16533 77.6095 9.044C77.4788 8.92267 77.4135 8.74067 77.4135 8.498V7.126L79.7235 6.748L80.4515 2.828C80.4982 2.64133 80.5868 2.49667 80.7175 2.394C80.8482 2.29133 81.0162 2.24 81.2215 2.24H83.0135V6.762H86.8495V9.226H83.0135V17.01C83.0135 17.458 83.1208 17.808 83.3355 18.06C83.5595 18.312 83.8628 18.438 84.2455 18.438C84.4602 18.438 84.6375 18.4147 84.7775 18.368C84.9268 18.312 85.0528 18.256 85.1555 18.2C85.2675 18.144 85.3655 18.0927 85.4495 18.046C85.5335 17.99 85.6175 17.962 85.7015 17.962C85.8042 17.962 85.8882 17.99 85.9535 18.046C86.0188 18.0927 86.0888 18.1673 86.1635 18.27L87.1995 19.95C86.6955 20.37 86.1168 20.6873 85.4635 20.902C84.8102 21.1167 84.1335 21.224 83.4335 21.224ZM96.6515 14.868C95.6528 14.9147 94.8128 15.0033 94.1315 15.134C93.4501 15.2553 92.9041 15.414 92.4935 15.61C92.0828 15.806 91.7888 16.0347 91.6115 16.296C91.4341 16.5573 91.3455 16.842 91.3455 17.15C91.3455 17.7567 91.5228 18.1907 91.8775 18.452C92.2415 18.7133 92.7128 18.844 93.2915 18.844C94.0008 18.844 94.6121 18.718 95.1255 18.466C95.6481 18.2047 96.1568 17.8127 96.6515 17.29V14.868ZM88.7275 8.638C90.3795 7.126 92.3675 6.37 94.6915 6.37C95.5315 6.37 96.2828 6.51 96.9455 6.79C97.6081 7.06067 98.1681 7.44333 98.6255 7.938C99.0828 8.42333 99.4281 9.00667 99.6615 9.688C99.9041 10.3693 100.025 11.116 100.025 11.928V21H98.4575C98.1308 21 97.8788 20.9533 97.7015 20.86C97.5241 20.7573 97.3841 20.5567 97.2815 20.258L96.9735 19.222C96.6095 19.5487 96.2548 19.838 95.9095 20.09C95.5641 20.3327 95.2048 20.538 94.8315 20.706C94.4581 20.874 94.0568 21 93.6275 21.084C93.2075 21.1773 92.7408 21.224 92.2275 21.224C91.6208 21.224 91.0608 21.1447 90.5475 20.986C90.0341 20.818 89.5908 20.5707 89.2175 20.244C88.8441 19.9173 88.5548 19.5113 88.3495 19.026C88.1441 18.5407 88.0415 17.976 88.0415 17.332C88.0415 16.968 88.1021 16.6087 88.2235 16.254C88.3448 15.89 88.5408 15.5447 88.8115 15.218C89.0915 14.8913 89.4508 14.5833 89.8895 14.294C90.3281 14.0047 90.8648 13.7527 91.4995 13.538C92.1435 13.3233 92.8901 13.1507 93.7395 13.02C94.5888 12.88 95.5595 12.796 96.6515 12.768V11.928C96.6515 10.9667 96.4461 10.2573 96.0355 9.8C95.6248 9.33333 95.0321 9.1 94.2575 9.1C93.6975 9.1 93.2308 9.16533 92.8575 9.296C92.4935 9.42667 92.1715 9.576 91.8915 9.744C91.6115 9.90267 91.3548 10.0473 91.1215 10.178C90.8975 10.3087 90.6455 10.374 90.3655 10.374C90.1228 10.374 89.9175 10.3133 89.7495 10.192C89.5815 10.0613 89.4461 9.912 89.3435 9.744L88.7275 8.638ZM107.879 21.224C106.628 21.224 105.667 20.874 104.995 20.174C104.332 19.4647 104.001 18.4893 104.001 17.248V9.226H102.531C102.344 9.226 102.185 9.16533 102.055 9.044C101.924 8.92267 101.859 8.74067 101.859 8.498V7.126L104.169 6.748L104.897 2.828C104.943 2.64133 105.032 2.49667 105.163 2.394C105.293 2.29133 105.461 2.24 105.667 2.24H107.459V6.762H111.295V9.226H107.459V17.01C107.459 17.458 107.566 17.808 107.781 18.06C108.005 18.312 108.308 18.438 108.691 18.438C108.905 18.438 109.083 18.4147 109.223 18.368C109.372 18.312 109.498 18.256 109.601 18.2C109.713 18.144 109.811 18.0927 109.895 18.046C109.979 17.99 110.063 17.962 110.147 17.962C110.249 17.962 110.333 17.99 110.399 18.046C110.464 18.0927 110.534 18.1673 110.609 18.27L111.645 19.95C111.141 20.37 110.562 20.6873 109.909 20.902C109.255 21.1167 108.579 21.224 107.879 21.224ZM122.653 12.166C122.653 11.718 122.588 11.298 122.457 10.906C122.336 10.5047 122.149 10.1547 121.897 9.856C121.645 9.55733 121.323 9.324 120.931 9.156C120.549 8.97867 120.101 8.89 119.587 8.89C118.589 8.89 117.8 9.17467 117.221 9.744C116.652 10.3133 116.288 11.1207 116.129 12.166H122.653ZM116.059 14.252C116.115 14.9893 116.246 15.6287 116.451 16.17C116.657 16.702 116.927 17.1453 117.263 17.5C117.599 17.8453 117.996 18.1067 118.453 18.284C118.92 18.452 119.433 18.536 119.993 18.536C120.553 18.536 121.034 18.4707 121.435 18.34C121.846 18.2093 122.201 18.0647 122.499 17.906C122.807 17.7473 123.073 17.6027 123.297 17.472C123.531 17.3413 123.755 17.276 123.969 17.276C124.259 17.276 124.473 17.3833 124.613 17.598L125.607 18.858C125.225 19.306 124.795 19.684 124.319 19.992C123.843 20.2907 123.344 20.5333 122.821 20.72C122.308 20.8973 121.781 21.0233 121.239 21.098C120.707 21.1727 120.189 21.21 119.685 21.21C118.687 21.21 117.758 21.0467 116.899 20.72C116.041 20.384 115.294 19.894 114.659 19.25C114.025 18.5967 113.525 17.794 113.161 16.842C112.797 15.8807 112.615 14.77 112.615 13.51C112.615 12.53 112.774 11.6107 113.091 10.752C113.409 9.884 113.861 9.13267 114.449 8.498C115.047 7.854 115.77 7.34533 116.619 6.972C117.478 6.59867 118.444 6.412 119.517 6.412C120.423 6.412 121.258 6.55667 122.023 6.846C122.789 7.13533 123.447 7.56 123.997 8.12C124.548 8.67067 124.977 9.352 125.285 10.164C125.603 10.9667 125.761 11.886 125.761 12.922C125.761 13.4447 125.705 13.7993 125.593 13.986C125.481 14.1633 125.267 14.252 124.949 14.252H116.059Z" fill="black"/>
</svg>
