<svg width="28" height="29" viewBox="0 0 28 29" fill="none" xmlns="http://www.w3.org/2000/svg">
<g clip-path="url(#clip0_140_479)">
<path d="M28 14.7705C28 7.03857 21.7319 0.770508 14 0.770508C6.26806 0.770508 0 7.03846 0 14.7705C0 21.7583 5.11963 27.5502 11.8125 28.6004V18.8174H8.25781V14.7705H11.8125V11.6861C11.8125 8.17738 13.9027 6.23926 17.1005 6.23926C18.6322 6.23926 20.2344 6.51269 20.2344 6.51269V9.95801H18.4691C16.7298 9.95801 16.1875 11.0372 16.1875 12.1444V14.7705H20.0703L19.4496 18.8174H16.1875V28.6004C22.8804 27.5502 28 21.7584 28 14.7705Z" fill="#1877F2"/>
<path d="M19.4496 18.8174L20.0703 14.7705H16.1875V12.1444C16.1875 11.0371 16.7299 9.95801 18.4691 9.95801H20.2344V6.5127C20.2344 6.5127 18.6322 6.23926 17.1005 6.23926C13.9027 6.23926 11.8125 8.17738 11.8125 11.6861V14.7705H8.25781V18.8174H11.8125V28.6004C12.5361 28.7138 13.2675 28.7707 14 28.7705C14.7325 28.7707 15.4639 28.7139 16.1875 28.6004V18.8174H19.4496Z" fill="white"/>
</g>
<defs>
<clipPath id="clip0_140_479">
<rect width="28" height="28" fill="white" transform="translate(0 0.770508)"/>
</clipPath>
</defs>
</svg>
