<svg width="91" height="80" viewBox="0 0 91 80" fill="none" xmlns="http://www.w3.org/2000/svg">
<g filter="url(#filter0_d_1_148)">
<rect x="12" y="8.00012" width="67" height="55.9999" rx="12" fill="#FDEAE5"/>
</g>
<path d="M48.5756 42.7801V45.0001H38.9756V42.7801H42.4916V32.6641C42.4916 32.2641 42.5036 31.8521 42.5276 31.4281L40.0316 33.5161C39.8876 33.6281 39.7436 33.7001 39.5996 33.7321C39.4636 33.7561 39.3316 33.7561 39.2036 33.7321C39.0836 33.7081 38.9756 33.6681 38.8796 33.6121C38.7836 33.5481 38.7116 33.4801 38.6636 33.4081L37.7276 32.1241L43.0196 27.6241H45.4556V42.7801H48.5756ZM51.1094 43.3681C51.1094 43.1201 51.1534 42.8841 51.2414 42.6601C51.3374 42.4361 51.4654 42.2441 51.6254 42.0841C51.7854 41.9241 51.9774 41.7961 52.2014 41.7001C52.4254 41.6041 52.6654 41.5561 52.9214 41.5561C53.1774 41.5561 53.4134 41.6041 53.6294 41.7001C53.8534 41.7961 54.0454 41.9241 54.2054 42.0841C54.3734 42.2441 54.5054 42.4361 54.6014 42.6601C54.6974 42.8841 54.7454 43.1201 54.7454 43.3681C54.7454 43.6241 54.6974 43.8641 54.6014 44.0881C54.5054 44.3041 54.3734 44.4921 54.2054 44.6521C54.0454 44.8121 53.8534 44.9361 53.6294 45.0241C53.4134 45.1201 53.1774 45.1681 52.9214 45.1681C52.6654 45.1681 52.4254 45.1201 52.2014 45.0241C51.9774 44.9361 51.7854 44.8121 51.6254 44.6521C51.4654 44.4921 51.3374 44.3041 51.2414 44.0881C51.1534 43.8641 51.1094 43.6241 51.1094 43.3681Z" fill="#F54C1E"/>
<defs>
<filter id="filter0_d_1_148" x="0" y="0.00012207" width="91" height="79.9999" filterUnits="userSpaceOnUse" color-interpolation-filters="sRGB">
<feFlood flood-opacity="0" result="BackgroundImageFix"/>
<feColorMatrix in="SourceAlpha" type="matrix" values="0 0 0 0 0 0 0 0 0 0 0 0 0 0 0 0 0 0 127 0" result="hardAlpha"/>
<feOffset dy="4"/>
<feGaussianBlur stdDeviation="6"/>
<feComposite in2="hardAlpha" operator="out"/>
<feColorMatrix type="matrix" values="0 0 0 0 0.960784 0 0 0 0 0.298039 0 0 0 0 0.117647 0 0 0 0.25 0"/>
<feBlend mode="normal" in2="BackgroundImageFix" result="effect1_dropShadow_1_148"/>
<feBlend mode="normal" in="SourceGraphic" in2="effect1_dropShadow_1_148" result="shape"/>
</filter>
</defs>
</svg>
