<svg width="91" height="80" viewBox="0 0 91 80" fill="none" xmlns="http://www.w3.org/2000/svg">
<g filter="url(#filter0_d_1_127)">
<rect x="12" y="8.00012" width="67" height="56" rx="12" fill="#FDEAE5"/>
</g>
<path d="M37.4517 32.4841C37.5717 31.6521 37.8037 30.9241 38.1477 30.3001C38.4917 29.6681 38.9197 29.1441 39.4317 28.7281C39.9517 28.3041 40.5437 27.9881 41.2077 27.7801C41.8797 27.5641 42.5997 27.4561 43.3677 27.4561C44.1677 27.4561 44.8877 27.5721 45.5277 27.8041C46.1757 28.0281 46.7277 28.3441 47.1837 28.7521C47.6397 29.1521 47.9877 29.6241 48.2277 30.1681C48.4757 30.7121 48.5997 31.3001 48.5997 31.9321C48.5997 32.4841 48.5357 32.9721 48.4077 33.3961C48.2877 33.8121 48.1117 34.1761 47.8797 34.4881C47.6477 34.8001 47.3597 35.0641 47.0157 35.2801C46.6717 35.4961 46.2837 35.6761 45.8517 35.8201C46.8917 36.1481 47.6677 36.6481 48.1797 37.3201C48.6917 37.9921 48.9477 38.8361 48.9477 39.8521C48.9477 40.7161 48.7877 41.4801 48.4677 42.1441C48.1477 42.8081 47.7157 43.3681 47.1717 43.8241C46.6277 44.2721 45.9957 44.6121 45.2757 44.8441C44.5637 45.0761 43.8077 45.1921 43.0077 45.1921C42.1357 45.1921 41.3757 45.0921 40.7277 44.8921C40.0797 44.6921 39.5157 44.3961 39.0357 44.0041C38.5557 43.6121 38.1477 43.1321 37.8117 42.5641C37.4757 41.9961 37.1877 41.3401 36.9477 40.5961L38.2557 40.0561C38.5997 39.9121 38.9197 39.8761 39.2157 39.9481C39.5197 40.0121 39.7397 40.1721 39.8757 40.4281C40.0197 40.7081 40.1757 40.9841 40.3437 41.2561C40.5197 41.5281 40.7277 41.7721 40.9677 41.9881C41.2077 42.1961 41.4877 42.3681 41.8077 42.5041C42.1357 42.6321 42.5237 42.6961 42.9717 42.6961C43.4757 42.6961 43.9157 42.6161 44.2917 42.4561C44.6677 42.2881 44.9797 42.0721 45.2277 41.8081C45.4837 41.5441 45.6717 41.2521 45.7917 40.9321C45.9197 40.6041 45.9837 40.2761 45.9837 39.9481C45.9837 39.5321 45.9397 39.1561 45.8517 38.8201C45.7637 38.4761 45.5797 38.1841 45.2997 37.9441C45.0197 37.7041 44.6157 37.5161 44.0877 37.3801C43.5677 37.2441 42.8677 37.1761 41.9877 37.1761V35.0641C42.7157 35.0561 43.3197 34.9881 43.7997 34.8601C44.2797 34.7321 44.6597 34.5561 44.9397 34.3321C45.2277 34.1001 45.4277 33.8241 45.5397 33.5041C45.6517 33.1841 45.7077 32.8321 45.7077 32.4481C45.7077 31.6321 45.4797 31.0121 45.0237 30.5881C44.5677 30.1641 43.9597 29.9521 43.1997 29.9521C42.8477 29.9521 42.5237 30.0041 42.2277 30.1081C41.9317 30.2041 41.6637 30.3441 41.4237 30.5281C41.1917 30.7041 40.9957 30.9121 40.8357 31.1521C40.6757 31.3921 40.5557 31.6561 40.4757 31.9441C40.3397 32.3121 40.1597 32.5561 39.9357 32.6761C39.7197 32.7961 39.4117 32.8241 39.0117 32.7601L37.4517 32.4841ZM51.1096 43.3681C51.1096 43.1201 51.1536 42.8841 51.2416 42.6601C51.3376 42.4361 51.4656 42.2441 51.6256 42.0841C51.7856 41.9241 51.9776 41.7961 52.2016 41.7001C52.4256 41.6041 52.6656 41.5561 52.9216 41.5561C53.1776 41.5561 53.4136 41.6041 53.6296 41.7001C53.8536 41.7961 54.0456 41.9241 54.2056 42.0841C54.3736 42.2441 54.5056 42.4361 54.6016 42.6601C54.6976 42.8841 54.7456 43.1201 54.7456 43.3681C54.7456 43.6241 54.6976 43.8641 54.6016 44.0881C54.5056 44.3041 54.3736 44.4921 54.2056 44.6521C54.0456 44.8121 53.8536 44.9361 53.6296 45.0241C53.4136 45.1201 53.1776 45.1681 52.9216 45.1681C52.6656 45.1681 52.4256 45.1201 52.2016 45.0241C51.9776 44.9361 51.7856 44.8121 51.6256 44.6521C51.4656 44.4921 51.3376 44.3041 51.2416 44.0881C51.1536 43.8641 51.1096 43.6241 51.1096 43.3681Z" fill="#F54C1E"/>
<defs>
<filter id="filter0_d_1_127" x="0" y="0.00012207" width="91" height="80" filterUnits="userSpaceOnUse" color-interpolation-filters="sRGB">
<feFlood flood-opacity="0" result="BackgroundImageFix"/>
<feColorMatrix in="SourceAlpha" type="matrix" values="0 0 0 0 0 0 0 0 0 0 0 0 0 0 0 0 0 0 127 0" result="hardAlpha"/>
<feOffset dy="4"/>
<feGaussianBlur stdDeviation="6"/>
<feComposite in2="hardAlpha" operator="out"/>
<feColorMatrix type="matrix" values="0 0 0 0 0.960784 0 0 0 0 0.298039 0 0 0 0 0.117647 0 0 0 0.25 0"/>
<feBlend mode="normal" in2="BackgroundImageFix" result="effect1_dropShadow_1_127"/>
<feBlend mode="normal" in="SourceGraphic" in2="effect1_dropShadow_1_127" result="shape"/>
</filter>
</defs>
</svg>
