<svg width="91" height="80" viewBox="0 0 91 80" fill="none" xmlns="http://www.w3.org/2000/svg">
<g filter="url(#filter0_d_1_134)">
<rect x="12" y="8.00012" width="67" height="56" rx="12" fill="#FDEAE5"/>
</g>
<path d="M44.7354 38.4601V32.7841C44.7354 32.2481 44.7714 31.6561 44.8434 31.0081L39.4554 38.4601H44.7354ZM49.4994 38.4601V40.1761C49.4994 40.3361 49.4474 40.4761 49.3434 40.5961C49.2394 40.7081 49.0914 40.7641 48.8994 40.7641H47.3154V45.0001H44.7354V40.7641H37.4154C37.2154 40.7641 37.0394 40.7041 36.8874 40.5841C36.7354 40.4561 36.6394 40.3001 36.5994 40.1161L36.2874 38.6161L44.5074 27.6361H47.3154V38.4601H49.4994ZM51.1453 43.3681C51.1453 43.1201 51.1893 42.8841 51.2773 42.6601C51.3733 42.4361 51.5013 42.2441 51.6613 42.0841C51.8213 41.9241 52.0133 41.7961 52.2373 41.7001C52.4613 41.6041 52.7013 41.5561 52.9573 41.5561C53.2133 41.5561 53.4493 41.6041 53.6653 41.7001C53.8893 41.7961 54.0813 41.9241 54.2413 42.0841C54.4093 42.2441 54.5413 42.4361 54.6373 42.6601C54.7333 42.8841 54.7813 43.1201 54.7813 43.3681C54.7813 43.6241 54.7333 43.8641 54.6373 44.0881C54.5413 44.3041 54.4093 44.4921 54.2413 44.6521C54.0813 44.8121 53.8893 44.9361 53.6653 45.0241C53.4493 45.1201 53.2133 45.1681 52.9573 45.1681C52.7013 45.1681 52.4613 45.1201 52.2373 45.0241C52.0133 44.9361 51.8213 44.8121 51.6613 44.6521C51.5013 44.4921 51.3733 44.3041 51.2773 44.0881C51.1893 43.8641 51.1453 43.6241 51.1453 43.3681Z" fill="#F54C1E"/>
<defs>
<filter id="filter0_d_1_134" x="0" y="0.00012207" width="91" height="80" filterUnits="userSpaceOnUse" color-interpolation-filters="sRGB">
<feFlood flood-opacity="0" result="BackgroundImageFix"/>
<feColorMatrix in="SourceAlpha" type="matrix" values="0 0 0 0 0 0 0 0 0 0 0 0 0 0 0 0 0 0 127 0" result="hardAlpha"/>
<feOffset dy="4"/>
<feGaussianBlur stdDeviation="6"/>
<feComposite in2="hardAlpha" operator="out"/>
<feColorMatrix type="matrix" values="0 0 0 0 0.960784 0 0 0 0 0.298039 0 0 0 0 0.117647 0 0 0 0.25 0"/>
<feBlend mode="normal" in2="BackgroundImageFix" result="effect1_dropShadow_1_134"/>
<feBlend mode="normal" in="SourceGraphic" in2="effect1_dropShadow_1_134" result="shape"/>
</filter>
</defs>
</svg>
