<svg width="60" height="60" viewBox="0 0 60 60" fill="none" xmlns="http://www.w3.org/2000/svg">
<rect width="60" height="60" rx="12" fill="#FEE7E1" fill-opacity="0.85098"/>
<path d="M25.778 14H34.6669C35.3741 14 36.0524 14.281 36.5525 14.781C37.0526 15.2811 37.3336 15.9594 37.3336 16.6667C37.3336 18.3169 36.678 19.8995 35.5111 21.0664C34.3442 22.2333 32.7616 22.8889 31.1113 22.8889H29.3336C27.6833 22.8889 26.1007 22.2333 24.9338 21.0664C23.7669 19.8995 23.1113 18.3169 23.1113 16.6667C23.1113 15.9594 23.3923 15.2811 23.8924 14.781C24.3925 14.281 25.0708 14 25.778 14Z" stroke="#F54C1E" stroke-width="2.5" stroke-linecap="round" stroke-linejoin="round"/>
<path d="M16 38.8889V37.1111C16 33.3392 17.4984 29.7217 20.1656 27.0545C22.8328 24.3873 26.4503 22.8889 30.2222 22.8889C33.9942 22.8889 37.6117 24.3873 40.2789 27.0545C42.946 29.7217 44.4444 33.3392 44.4444 37.1111V38.8889C44.4444 40.7749 43.6952 42.5836 42.3616 43.9172C41.0281 45.2508 39.2193 46 37.3333 46H23.1111C21.2251 46 19.4164 45.2508 18.0828 43.9172C16.7492 42.5836 16 40.7749 16 38.8889Z" stroke="#F54C1E" stroke-width="2.5" stroke-linecap="round" stroke-linejoin="round"/>
</svg>
