<svg width="28" height="29" viewBox="0 0 28 29" fill="none" xmlns="http://www.w3.org/2000/svg">
<g clip-path="url(#clip0_140_474)">
<path d="M21.4375 0.770508H6.5625C2.93813 0.770508 0 3.70864 0 7.33301V22.208C0 25.8324 2.93813 28.7705 6.5625 28.7705H21.4375C25.0619 28.7705 28 25.8324 28 22.208V7.33301C28 3.70864 25.0619 0.770508 21.4375 0.770508Z" fill="url(#paint0_radial_140_474)"/>
<path d="M21.4375 0.770508H6.5625C2.93813 0.770508 0 3.70864 0 7.33301V22.208C0 25.8324 2.93813 28.7705 6.5625 28.7705H21.4375C25.0619 28.7705 28 25.8324 28 22.208V7.33301C28 3.70864 25.0619 0.770508 21.4375 0.770508Z" fill="url(#paint1_radial_140_474)"/>
<path d="M14.001 3.83301C11.0306 3.83301 10.6577 3.84602 9.49113 3.89907C8.32672 3.95245 7.53189 4.13674 6.83648 4.40723C6.11702 4.68657 5.50681 5.0603 4.89891 5.66843C4.29045 6.27645 3.91672 6.88665 3.6365 7.60579C3.36525 8.30141 3.18073 9.09657 3.12834 10.2604C3.07617 11.4271 3.0625 11.8001 3.0625 14.7706C3.0625 17.7411 3.07563 18.1128 3.12856 19.2794C3.18216 20.4438 3.36645 21.2386 3.63672 21.934C3.91628 22.6535 4.29002 23.2637 4.89814 23.8716C5.50594 24.4801 6.11614 24.8547 6.83506 25.134C7.53102 25.4045 8.32595 25.5888 9.49014 25.6422C10.6568 25.6952 11.0294 25.7082 13.9997 25.7082C16.9704 25.7082 17.3421 25.6952 18.5087 25.6422C19.6731 25.5888 20.4688 25.4045 21.1647 25.134C21.8839 24.8547 22.4932 24.4801 23.1009 23.8716C23.7093 23.2637 24.083 22.6535 24.3633 21.9344C24.6321 21.2386 24.8167 20.4436 24.8714 19.2796C24.9238 18.113 24.9375 17.7411 24.9375 14.7706C24.9375 11.8001 24.9238 11.4274 24.8714 10.2606C24.8167 9.09624 24.6321 8.30152 24.3633 7.60612C24.083 6.88665 23.7093 6.27645 23.1009 5.66843C22.4925 5.06009 21.8841 4.68635 21.1641 4.40734C20.4668 4.13674 19.6715 3.95234 18.5071 3.89907C17.3404 3.84602 16.969 3.83301 13.9976 3.83301H14.001ZM13.0198 5.80405C13.311 5.80362 13.636 5.80405 14.001 5.80405C16.9214 5.80405 17.2675 5.81455 18.4207 5.86695C19.4871 5.91573 20.0659 6.0939 20.4515 6.24363C20.9619 6.44182 21.3258 6.67884 21.7084 7.06176C22.0912 7.44457 22.3281 7.80912 22.5269 8.31957C22.6766 8.70457 22.855 9.28338 22.9036 10.3498C22.956 11.5028 22.9673 11.8491 22.9673 14.7681C22.9673 17.6871 22.956 18.0335 22.9036 19.1864C22.8548 20.2528 22.6766 20.8316 22.5269 21.2167C22.3287 21.7272 22.0912 22.0906 21.7084 22.4732C21.3256 22.8561 20.9622 23.093 20.4515 23.2913C20.0664 23.4416 19.4871 23.6194 18.4207 23.6682C17.2677 23.7206 16.9214 23.7319 14.001 23.7319C11.0805 23.7319 10.7343 23.7206 9.58136 23.6682C8.51495 23.6189 7.93614 23.4408 7.55027 23.291C7.03992 23.0927 6.67527 22.8558 6.29245 22.473C5.90964 22.0902 5.67273 21.7265 5.474 21.2159C5.32427 20.8308 5.14587 20.2519 5.09731 19.1855C5.04492 18.0325 5.03442 17.6862 5.03442 14.7654C5.03442 11.8446 5.04492 11.5001 5.09731 10.3471C5.14609 9.28065 5.32427 8.70184 5.474 8.31629C5.6723 7.80584 5.90964 7.44129 6.29256 7.05848C6.67538 6.67566 7.03992 6.43865 7.55037 6.24002C7.93592 6.08963 8.51495 5.9119 9.58136 5.8629C10.5903 5.81729 10.9814 5.80362 13.0198 5.80132V5.80405ZM19.8394 7.62012C19.1148 7.62012 18.5269 8.20746 18.5269 8.93218C18.5269 9.65679 19.1148 10.2447 19.8394 10.2447C20.564 10.2447 21.1519 9.65679 21.1519 8.93218C21.1519 8.20757 20.564 7.61968 19.8394 7.61968V7.62012ZM14.001 9.15366C10.8991 9.15366 8.38414 11.6686 8.38414 14.7706C8.38414 17.8726 10.8991 20.3864 14.001 20.3864C17.103 20.3864 19.6171 17.8726 19.6171 14.7706C19.6171 11.6687 17.1028 9.15366 14.0008 9.15366H14.001ZM14.001 11.1247C16.0145 11.1247 17.6469 12.7569 17.6469 14.7706C17.6469 16.7841 16.0145 18.4165 14.001 18.4165C11.9874 18.4165 10.3552 16.7841 10.3552 14.7706C10.3552 12.7569 11.9874 11.1247 14.001 11.1247Z" fill="white"/>
</g>
<defs>
<radialGradient id="paint0_radial_140_474" cx="0" cy="0" r="1" gradientUnits="userSpaceOnUse" gradientTransform="translate(7.4375 30.9271) rotate(-90) scale(27.7501 25.8098)">
<stop stop-color="#FFDD55"/>
<stop offset="0.1" stop-color="#FFDD55"/>
<stop offset="0.5" stop-color="#FF543E"/>
<stop offset="1" stop-color="#C837AB"/>
</radialGradient>
<radialGradient id="paint1_radial_140_474" cx="0" cy="0" r="1" gradientUnits="userSpaceOnUse" gradientTransform="translate(-4.69011 2.78749) rotate(78.681) scale(12.4044 51.1315)">
<stop stop-color="#3771C8"/>
<stop offset="0.128" stop-color="#3771C8"/>
<stop offset="1" stop-color="#6600FF" stop-opacity="0"/>
</radialGradient>
<clipPath id="clip0_140_474">
<rect width="28" height="28" fill="white" transform="translate(0 0.770508)"/>
</clipPath>
</defs>
</svg>
