<svg width="72" height="73" viewBox="0 0 72 73" fill="none" xmlns="http://www.w3.org/2000/svg">
<path d="M38.2782 4.56688L45.8494 21.8356C46.1342 22.4855 46.5882 23.0471 47.1641 23.4616C47.7399 23.8762 48.4165 24.1286 49.1232 24.1925L67.5676 25.8463C69.6544 26.15 70.4869 28.7094 68.9738 30.1831L55.0801 41.855C53.9551 42.8 53.4432 44.285 53.7526 45.7194L57.7913 64.625C58.1457 66.7006 55.9688 68.2869 54.1013 67.3025L38.0026 57.875C37.3954 57.5186 36.7041 57.3307 36.0001 57.3307C35.296 57.3307 34.6047 57.5186 33.9976 57.875L17.8988 67.2969C16.0369 68.2756 13.8544 66.695 14.2088 64.6194L18.2476 45.7137C18.5513 44.2794 18.0451 42.7944 16.9201 41.8494L3.02069 30.1887C1.51319 28.7206 2.34569 26.1556 4.42694 25.8519L22.8713 24.1981C23.578 24.1342 24.2546 23.8818 24.8304 23.4673C25.4063 23.0527 25.8603 22.4911 26.1451 21.8412L33.7163 4.5725C34.6557 2.6825 37.3444 2.6825 38.2782 4.56688Z" fill="#FDD835"/>
<path d="M37.727 22.8706L36.4445 10.1469C36.3938 9.43814 36.2476 8.22314 37.3838 8.22314C38.2838 8.22314 38.7732 10.0963 38.7732 10.0963L42.6207 20.3113C44.072 24.1981 43.4757 25.5313 42.0751 26.3188C40.4663 27.2188 38.0926 26.5156 37.727 22.8706Z" fill="#FFFF8D"/>
<path d="M53.5949 40.7242L64.6312 32.1123C65.1768 31.6567 66.1612 30.931 65.3737 30.1042C64.7493 29.4517 63.0618 30.391 63.0618 30.391L53.4037 34.1654C50.5237 35.161 48.6112 36.6348 48.4424 38.491C48.223 40.966 50.4449 42.8729 53.5949 40.7242Z" fill="#F4B400"/>
</svg>
