<svg width="60" height="60" viewBox="0 0 60 60" fill="none" xmlns="http://www.w3.org/2000/svg">
<rect width="60" height="60" rx="12" fill="#FEE7E1" fill-opacity="0.85098"/>
<path d="M18.6071 35.2896L25.4021 42.0846C28.1921 44.8746 32.7221 44.8746 35.5271 42.0846L42.1121 35.4995C44.9021 32.7095 44.9021 28.1796 42.1121 25.3746L35.3021 18.5946C33.8771 17.1696 31.9121 16.4046 29.9021 16.5096L22.4021 16.8696C19.4021 17.0046 17.0171 19.3896 16.8671 22.3746L16.5071 29.8745C16.4171 31.8995 17.1821 33.8646 18.6071 35.2896Z" stroke="#F54C1E" stroke-width="2.5" stroke-linecap="round" stroke-linejoin="round"/>
<path d="M26.6022 30.3395C28.6732 30.3395 30.3522 28.6606 30.3522 26.5895C30.3522 24.5185 28.6732 22.8395 26.6022 22.8395C24.5311 22.8395 22.8522 24.5185 22.8522 26.5895C22.8522 28.6606 24.5311 30.3395 26.6022 30.3395Z" stroke="#F54C1E" stroke-width="2.5" stroke-linecap="round"/>
<path d="M31.8522 37.8395L37.8522 31.8395" stroke="#F54C1E" stroke-width="2.5" stroke-miterlimit="10" stroke-linecap="round" stroke-linejoin="round"/>
</svg>
